<svg xmlns="http://www.w3.org/2000/svg" xmlns:xlink="http://www.w3.org/1999/xlink" viewBox="0 0 579.905 217.563"><defs><style>.a,.c{fill:none;}.b{opacity:0.1;clip-path:url(#a);}.c{stroke:#ef2f48;stroke-linecap:round;stroke-width:5px;}.d,.f{fill:#ef2f48;}.e{fill:#fff;}.e,.f{font-size:64px;font-family:ProximaNova-ExtrabldIt, Proxima Nova;font-style:italic;}.g{filter:url(#d);}.h{filter:url(#b);}</style><clipPath id="a"><rect class="a" width="579.904" height="217.563"/></clipPath><filter id="b" x="254.311" y="46" width="249.352" height="132.323" filterUnits="userSpaceOnUse"><feOffset dy="3" input="SourceAlpha"/><feGaussianBlur stdDeviation="1" result="c"/><feFlood flood-opacity="0.2"/><feComposite operator="in" in2="c"/><feComposite in="SourceGraphic"/></filter><filter id="d" x="77" y="70.323" width="178" height="84" filterUnits="userSpaceOnUse"><feOffset dy="3" input="SourceAlpha"/><feGaussianBlur stdDeviation="1" result="e"/><feFlood flood-opacity="0.2"/><feComposite operator="in" in2="e"/><feComposite in="SourceGraphic"/></filter></defs><g transform="translate(-720.079 -350)"><g class="b" transform="translate(720.079 350)"><g transform="translate(-681.5 -375.5)"><g transform="translate(9 4.437)"><line class="c" y2="10.406" transform="translate(686.703 375.5)"/><line class="c" y2="10.406" transform="translate(691.906 380.703) rotate(90)"/></g></g><g transform="translate(-638.5 -375.5)"><g transform="translate(9 4.437)"><line class="c" y2="10.406" transform="translate(686.703 375.5)"/><line class="c" y2="10.406" transform="translate(691.906 380.703) rotate(90)"/></g></g><g transform="translate(-595.5 -375.5)"><g transform="translate(9 4.437)"><line class="c" y2="10.406" transform="translate(686.703 375.5)"/><line class="c" y2="10.406" transform="translate(691.906 380.703) rotate(90)"/></g></g><g transform="translate(-552.5 -375.5)"><g transform="translate(9 4.437)"><line class="c" y2="10.406" transform="translate(686.703 375.5)"/><line class="c" y2="10.406" transform="translate(691.906 380.703) rotate(90)"/></g></g><g transform="translate(-509.5 -375.5)"><g transform="translate(9 4.437)"><line class="c" y2="10.406" transform="translate(686.703 375.5)"/><line class="c" y2="10.406" transform="translate(691.906 380.703) rotate(90)"/></g></g><g transform="translate(-466.5 -375.5)"><g transform="translate(9 4.437)"><line class="c" y2="10.406" transform="translate(686.703 375.5)"/><line class="c" y2="10.406" transform="translate(691.906 380.703) rotate(90)"/></g></g><g transform="translate(-423.5 -375.5)"><g transform="translate(9 4.437)"><line class="c" y2="10.406" transform="translate(686.703 375.5)"/><line class="c" y2="10.406" transform="translate(691.906 380.703) rotate(90)"/></g></g><g transform="translate(-380.5 -375.5)"><g transform="translate(9 4.437)"><line class="c" y2="10.406" transform="translate(686.703 375.5)"/><line class="c" y2="10.406" transform="translate(691.906 380.703) rotate(90)"/></g></g><g transform="translate(-337.5 -375.5)"><g transform="translate(9 4.437)"><line class="c" y2="10.406" transform="translate(686.703 375.5)"/><line class="c" y2="10.406" transform="translate(691.906 380.703) rotate(90)"/></g></g><g transform="translate(-294.5 -375.5)"><g transform="translate(9 4.437)"><line class="c" y2="10.406" transform="translate(686.703 375.5)"/><line class="c" y2="10.406" transform="translate(691.906 380.703) rotate(90)"/></g></g><g transform="translate(-251.5 -375.5)"><g transform="translate(9 4.437)"><line class="c" y2="10.406" transform="translate(686.703 375.5)"/><line class="c" y2="10.406" transform="translate(691.906 380.703) rotate(90)"/></g></g><g transform="translate(-208.5 -375.5)"><g transform="translate(9 4.437)"><line class="c" y2="10.406" transform="translate(686.703 375.5)"/><line class="c" y2="10.406" transform="translate(691.906 380.703) rotate(90)"/></g></g><g transform="translate(-165.5 -375.5)"><g transform="translate(9 4.437)"><line class="c" y2="10.406" transform="translate(686.703 375.5)"/><line class="c" y2="10.406" transform="translate(691.906 380.703) rotate(90)"/></g></g><g transform="translate(-122.5 -375.5)"><g transform="translate(9 4.437)"><line class="c" y2="10.406" transform="translate(686.703 375.5)"/><line class="c" y2="10.406" transform="translate(691.906 380.703) rotate(90)"/></g></g><g transform="translate(-681.5 -328.5)"><g transform="translate(9 4.437)"><line class="c" y2="10.406" transform="translate(686.703 375.5)"/><line class="c" y2="10.406" transform="translate(691.906 380.703) rotate(90)"/></g></g><g transform="translate(-638.5 -328.5)"><g transform="translate(9 4.437)"><line class="c" y2="10.406" transform="translate(686.703 375.5)"/><line class="c" y2="10.406" transform="translate(691.906 380.703) rotate(90)"/></g></g><g transform="translate(-595.5 -328.5)"><g transform="translate(9 4.437)"><line class="c" y2="10.406" transform="translate(686.703 375.5)"/><line class="c" y2="10.406" transform="translate(691.906 380.703) rotate(90)"/></g></g><g transform="translate(-552.5 -328.5)"><g transform="translate(9 4.437)"><line class="c" y2="10.406" transform="translate(686.703 375.5)"/><line class="c" y2="10.406" transform="translate(691.906 380.703) rotate(90)"/></g></g><g transform="translate(-509.5 -328.5)"><g transform="translate(9 4.437)"><line class="c" y2="10.406" transform="translate(686.703 375.5)"/><line class="c" y2="10.406" transform="translate(691.906 380.703) rotate(90)"/></g></g><g transform="translate(-466.5 -328.5)"><g transform="translate(9 4.437)"><line class="c" y2="10.406" transform="translate(686.703 375.5)"/><line class="c" y2="10.406" transform="translate(691.906 380.703) rotate(90)"/></g></g><g transform="translate(-423.5 -328.5)"><g transform="translate(9 4.437)"><line class="c" y2="10.406" transform="translate(686.703 375.5)"/><line class="c" y2="10.406" transform="translate(691.906 380.703) rotate(90)"/></g></g><g transform="translate(-380.5 -328.5)"><g transform="translate(9 4.437)"><line class="c" y2="10.406" transform="translate(686.703 375.5)"/><line class="c" y2="10.406" transform="translate(691.906 380.703) rotate(90)"/></g></g><g transform="translate(-337.5 -328.5)"><g transform="translate(9 4.437)"><line class="c" y2="10.406" transform="translate(686.703 375.5)"/><line class="c" y2="10.406" transform="translate(691.906 380.703) rotate(90)"/></g></g><g transform="translate(-294.5 -328.5)"><g transform="translate(9 4.437)"><line class="c" y2="10.406" transform="translate(686.703 375.5)"/><line class="c" y2="10.406" transform="translate(691.906 380.703) rotate(90)"/></g></g><g transform="translate(-251.5 -328.5)"><g transform="translate(9 4.437)"><line class="c" y2="10.406" transform="translate(686.703 375.5)"/><line class="c" y2="10.406" transform="translate(691.906 380.703) rotate(90)"/></g></g><g transform="translate(-208.5 -328.5)"><g transform="translate(9 4.437)"><line class="c" y2="10.406" transform="translate(686.703 375.5)"/><line class="c" y2="10.406" transform="translate(691.906 380.703) rotate(90)"/></g></g><g transform="translate(-165.5 -328.5)"><g transform="translate(9 4.437)"><line class="c" y2="10.406" transform="translate(686.703 375.5)"/><line class="c" y2="10.406" transform="translate(691.906 380.703) rotate(90)"/></g></g><g transform="translate(-122.5 -328.5)"><g transform="translate(9 4.437)"><line class="c" y2="10.406" transform="translate(686.703 375.5)"/><line class="c" y2="10.406" transform="translate(691.906 380.703) rotate(90)"/></g></g><g transform="translate(-681.5 -281.5)"><g transform="translate(9 4.437)"><line class="c" y2="10.406" transform="translate(686.703 375.5)"/><line class="c" y2="10.406" transform="translate(691.906 380.703) rotate(90)"/></g></g><g transform="translate(-638.5 -281.5)"><g transform="translate(9 4.437)"><line class="c" y2="10.406" transform="translate(686.703 375.5)"/><line class="c" y2="10.406" transform="translate(691.906 380.703) rotate(90)"/></g></g><g transform="translate(-595.5 -281.5)"><g transform="translate(9 4.437)"><line class="c" y2="10.406" transform="translate(686.703 375.5)"/><line class="c" y2="10.406" transform="translate(691.906 380.703) rotate(90)"/></g></g><g transform="translate(-552.5 -281.5)"><g transform="translate(9 4.437)"><line class="c" y2="10.406" transform="translate(686.703 375.5)"/><line class="c" y2="10.406" transform="translate(691.906 380.703) rotate(90)"/></g></g><g transform="translate(-509.5 -281.5)"><g transform="translate(9 4.437)"><line class="c" y2="10.406" transform="translate(686.703 375.5)"/><line class="c" y2="10.406" transform="translate(691.906 380.703) rotate(90)"/></g></g><g transform="translate(-466.5 -281.5)"><g transform="translate(9 4.437)"><line class="c" y2="10.406" transform="translate(686.703 375.5)"/><line class="c" y2="10.406" transform="translate(691.906 380.703) rotate(90)"/></g></g><g transform="translate(-423.5 -281.5)"><g transform="translate(9 4.437)"><line class="c" y2="10.406" transform="translate(686.703 375.5)"/><line class="c" y2="10.406" transform="translate(691.906 380.703) rotate(90)"/></g></g><g transform="translate(-380.5 -281.5)"><g transform="translate(9 4.437)"><line class="c" y2="10.406" transform="translate(686.703 375.5)"/><line class="c" y2="10.406" transform="translate(691.906 380.703) rotate(90)"/></g></g><g transform="translate(-337.5 -281.5)"><g transform="translate(9 4.437)"><line class="c" y2="10.406" transform="translate(686.703 375.5)"/><line class="c" y2="10.406" transform="translate(691.906 380.703) rotate(90)"/></g></g><g transform="translate(-294.5 -281.5)"><g transform="translate(9 4.437)"><line class="c" y2="10.406" transform="translate(686.703 375.5)"/><line class="c" y2="10.406" transform="translate(691.906 380.703) rotate(90)"/></g></g><g transform="translate(-251.5 -281.5)"><g transform="translate(9 4.437)"><line class="c" y2="10.406" transform="translate(686.703 375.5)"/><line class="c" y2="10.406" transform="translate(691.906 380.703) rotate(90)"/></g></g><g transform="translate(-208.5 -281.5)"><g transform="translate(9 4.437)"><line class="c" y2="10.406" transform="translate(686.703 375.5)"/><line class="c" y2="10.406" transform="translate(691.906 380.703) rotate(90)"/></g></g><g transform="translate(-165.5 -281.5)"><g transform="translate(9 4.437)"><line class="c" y2="10.406" transform="translate(686.703 375.5)"/><line class="c" y2="10.406" transform="translate(691.906 380.703) rotate(90)"/></g></g><g transform="translate(-122.5 -281.5)"><g transform="translate(9 4.437)"><line class="c" y2="10.406" transform="translate(686.703 375.5)"/><line class="c" y2="10.406" transform="translate(691.906 380.703) rotate(90)"/></g></g><g transform="translate(-681.5 -234.5)"><g transform="translate(9 4.437)"><line class="c" y2="10.406" transform="translate(686.703 375.5)"/><line class="c" y2="10.406" transform="translate(691.906 380.703) rotate(90)"/></g></g><g transform="translate(-638.5 -234.5)"><g transform="translate(9 4.437)"><line class="c" y2="10.406" transform="translate(686.703 375.5)"/><line class="c" y2="10.406" transform="translate(691.906 380.703) rotate(90)"/></g></g><g transform="translate(-595.5 -234.5)"><g transform="translate(9 4.437)"><line class="c" y2="10.406" transform="translate(686.703 375.5)"/><line class="c" y2="10.406" transform="translate(691.906 380.703) rotate(90)"/></g></g><g transform="translate(-552.5 -234.5)"><g transform="translate(9 4.437)"><line class="c" y2="10.406" transform="translate(686.703 375.5)"/><line class="c" y2="10.406" transform="translate(691.906 380.703) rotate(90)"/></g></g><g transform="translate(-509.5 -234.5)"><g transform="translate(9 4.437)"><line class="c" y2="10.406" transform="translate(686.703 375.5)"/><line class="c" y2="10.406" transform="translate(691.906 380.703) rotate(90)"/></g></g><g transform="translate(-466.5 -234.5)"><g transform="translate(9 4.437)"><line class="c" y2="10.406" transform="translate(686.703 375.5)"/><line class="c" y2="10.406" transform="translate(691.906 380.703) rotate(90)"/></g></g><g transform="translate(-423.5 -234.5)"><g transform="translate(9 4.437)"><line class="c" y2="10.406" transform="translate(686.703 375.5)"/><line class="c" y2="10.406" transform="translate(691.906 380.703) rotate(90)"/></g></g><g transform="translate(-380.5 -234.5)"><g transform="translate(9 4.437)"><line class="c" y2="10.406" transform="translate(686.703 375.5)"/><line class="c" y2="10.406" transform="translate(691.906 380.703) rotate(90)"/></g></g><g transform="translate(-337.5 -234.5)"><g transform="translate(9 4.437)"><line class="c" y2="10.406" transform="translate(686.703 375.5)"/><line class="c" y2="10.406" transform="translate(691.906 380.703) rotate(90)"/></g></g><g transform="translate(-294.5 -234.5)"><g transform="translate(9 4.437)"><line class="c" y2="10.406" transform="translate(686.703 375.5)"/><line class="c" y2="10.406" transform="translate(691.906 380.703) rotate(90)"/></g></g><g transform="translate(-251.5 -234.5)"><g transform="translate(9 4.437)"><line class="c" y2="10.406" transform="translate(686.703 375.5)"/><line class="c" y2="10.406" transform="translate(691.906 380.703) rotate(90)"/></g></g><g transform="translate(-208.5 -234.5)"><g transform="translate(9 4.437)"><line class="c" y2="10.406" transform="translate(686.703 375.5)"/><line class="c" y2="10.406" transform="translate(691.906 380.703) rotate(90)"/></g></g><g transform="translate(-165.5 -234.5)"><g transform="translate(9 4.437)"><line class="c" y2="10.406" transform="translate(686.703 375.5)"/><line class="c" y2="10.406" transform="translate(691.906 380.703) rotate(90)"/></g></g><g transform="translate(-122.5 -234.5)"><g transform="translate(9 4.437)"><line class="c" y2="10.406" transform="translate(686.703 375.5)"/><line class="c" y2="10.406" transform="translate(691.906 380.703) rotate(90)"/></g></g><g transform="translate(-681.5 -187.5)"><g transform="translate(9 4.437)"><line class="c" y2="10.406" transform="translate(686.703 375.5)"/><line class="c" y2="10.406" transform="translate(691.906 380.703) rotate(90)"/></g></g><g transform="translate(-638.5 -187.5)"><g transform="translate(9 4.437)"><line class="c" y2="10.406" transform="translate(686.703 375.5)"/><line class="c" y2="10.406" transform="translate(691.906 380.703) rotate(90)"/></g></g><g transform="translate(-595.5 -187.5)"><g transform="translate(9 4.437)"><line class="c" y2="10.406" transform="translate(686.703 375.5)"/><line class="c" y2="10.406" transform="translate(691.906 380.703) rotate(90)"/></g></g><g transform="translate(-552.5 -187.5)"><g transform="translate(9 4.437)"><line class="c" y2="10.406" transform="translate(686.703 375.5)"/><line class="c" y2="10.406" transform="translate(691.906 380.703) rotate(90)"/></g></g><g transform="translate(-509.5 -187.5)"><g transform="translate(9 4.437)"><line class="c" y2="10.406" transform="translate(686.703 375.5)"/><line class="c" y2="10.406" transform="translate(691.906 380.703) rotate(90)"/></g></g><g transform="translate(-466.5 -187.5)"><g transform="translate(9 4.437)"><line class="c" y2="10.406" transform="translate(686.703 375.5)"/><line class="c" y2="10.406" transform="translate(691.906 380.703) rotate(90)"/></g></g><g transform="translate(-423.5 -187.5)"><g transform="translate(9 4.437)"><line class="c" y2="10.406" transform="translate(686.703 375.5)"/><line class="c" y2="10.406" transform="translate(691.906 380.703) rotate(90)"/></g></g><g transform="translate(-380.5 -187.5)"><g transform="translate(9 4.437)"><line class="c" y2="10.406" transform="translate(686.703 375.5)"/><line class="c" y2="10.406" transform="translate(691.906 380.703) rotate(90)"/></g></g><g transform="translate(-337.5 -187.5)"><g transform="translate(9 4.437)"><line class="c" y2="10.406" transform="translate(686.703 375.5)"/><line class="c" y2="10.406" transform="translate(691.906 380.703) rotate(90)"/></g></g><g transform="translate(-294.5 -187.5)"><g transform="translate(9 4.437)"><line class="c" y2="10.406" transform="translate(686.703 375.5)"/><line class="c" y2="10.406" transform="translate(691.906 380.703) rotate(90)"/></g></g><g transform="translate(-251.5 -187.5)"><g transform="translate(9 4.437)"><line class="c" y2="10.406" transform="translate(686.703 375.5)"/><line class="c" y2="10.406" transform="translate(691.906 380.703) rotate(90)"/></g></g><g transform="translate(-208.5 -187.5)"><g transform="translate(9 4.437)"><line class="c" y2="10.406" transform="translate(686.703 375.5)"/><line class="c" y2="10.406" transform="translate(691.906 380.703) rotate(90)"/></g></g><g transform="translate(-165.5 -187.5)"><g transform="translate(9 4.437)"><line class="c" y2="10.406" transform="translate(686.703 375.5)"/><line class="c" y2="10.406" transform="translate(691.906 380.703) rotate(90)"/></g></g><g transform="translate(-122.5 -187.5)"><g transform="translate(9 4.437)"><line class="c" y2="10.406" transform="translate(686.703 375.5)"/><line class="c" y2="10.406" transform="translate(691.906 380.703) rotate(90)"/></g></g></g><g transform="translate(800.079 396)"><g class="h" transform="matrix(1, 0, 0, 1, -80, -46)"><path class="d" d="M0,0H215.81l27.542,60.6L215.81,126.323H0L22.988,60.6Z" transform="translate(257.31 46)"/></g><text class="e" transform="translate(209.062 83.323)"><tspan x="0" y="0">Direct</tspan></text><g class="g" transform="matrix(1, 0, 0, 1, -80, -46)"><text class="f" transform="translate(80 129.32)"><tspan x="0" y="0">React</tspan></text></g></g></g></svg>